<?xml version="1.0" standalone="no"?>
<!DOCTYPE svg PUBLIC "-//W3C//DTD SVG 20010904//EN"
 "https://www.w3.org/TR/2001/REC-SVG-20010904/DTD/svg10.dtd">
<svg version="1.0" xmlns="https://www.w3.org/2000/svg"
 width="124.000000pt" height="124.000000pt" viewBox="0 0 124.000000 124.000000"
 preserveAspectRatio="xMidYMid meet">
<metadata>
Created by potrace 1.10, written by Peter Selinger 2001-2011
</metadata>
<g transform="translate(0.000000,124.000000) scale(0.100000,-0.100000)"
fill="#000000" stroke="none">
<path d="M415 1103 c-30 -45 -32 -86 -5 -113 11 -11 20 -27 20 -35 0 -8 -9
-15 -20 -15 -18 0 -20 -7 -20 -65 l0 -65 -33 0 c-54 0 -57 -10 -57 -167 l0
-143 -49 0 c-77 0 -81 -8 -81 -171 l0 -139 -40 0 -40 0 0 -45 0 -45 530 0 530
0 0 45 0 45 -40 0 -40 0 0 139 c0 163 -4 171 -81 171 l-49 0 0 143 c0 157 -3
167 -57 167 l-33 0 0 65 c0 58 -2 65 -20 65 -26 0 -26 24 0 50 11 11 20 32 20
48 0 28 -43 102 -60 102 -14 0 -60 -84 -60 -109 0 -12 12 -33 26 -46 28 -26
25 -45 -7 -45 -17 0 -19 -7 -19 -65 0 -63 -1 -65 -25 -65 -24 0 -25 2 -25 65
0 58 -2 65 -19 65 -32 0 -35 19 -7 45 16 15 26 35 26 51 0 27 -45 104 -60 104
-15 0 -60 -77 -60 -104 0 -16 10 -36 26 -51 28 -26 25 -45 -7 -45 -17 0 -19
-7 -19 -65 0 -63 -1 -65 -25 -65 -24 0 -25 2 -25 65 0 58 -2 65 -19 65 -32 0
-35 19 -7 45 14 13 26 34 26 46 0 25 -46 109 -60 109 -5 0 -21 -17 -35 -37z
m59 -46 c8 -21 6 -31 -7 -44 -13 -13 -19 -14 -31 -3 -19 15 -20 34 -5 61 13
26 31 20 43 -14z m170 0 c8 -21 6 -31 -7 -44 -13 -13 -19 -14 -31 -3 -19 15
-20 34 -5 61 13 26 31 20 43 -14z m170 0 c8 -21 6 -31 -7 -44 -13 -13 -19 -14
-31 -3 -19 15 -20 34 -5 61 13 26 31 20 43 -14z m-334 -197 c0 -49 -1 -50 -30
-50 -29 0 -30 1 -30 50 0 49 1 50 30 50 29 0 30 -1 30 -50z m170 0 c0 -49 -1
-50 -30 -50 -29 0 -30 1 -30 50 0 49 1 50 30 50 29 0 30 -1 30 -50z m170 0 c0
-49 -1 -50 -30 -50 -29 0 -30 1 -30 50 0 49 1 50 30 50 29 0 30 -1 30 -50z
m-260 -235 c19 -14 46 -25 60 -25 14 0 41 11 60 25 19 14 39 25 45 25 6 0 26
-11 45 -25 41 -30 65 -31 108 -5 18 11 35 20 37 20 3 0 5 -31 5 -70 l0 -70
-300 0 -300 0 0 70 c0 39 2 70 5 70 2 0 19 -9 37 -20 43 -26 67 -25 108 5 19
14 39 25 45 25 6 0 26 -11 45 -25z m-218 -310 c20 -14 47 -25 60 -25 13 0 40
11 60 25 20 14 43 25 51 25 7 0 28 -11 47 -25 19 -14 46 -25 60 -25 14 0 41
11 60 25 19 14 40 25 47 25 8 0 31 -11 51 -25 47 -32 73 -31 123 2 l41 27 47
-26 c44 -26 46 -28 49 -77 l3 -51 -420 0 -421 0 0 49 c0 47 2 50 43 75 52 31
54 32 99 1z m778 -170 c0 -13 -62 -15 -500 -15 -438 0 -500 2 -500 15 0 13 62
15 500 15 438 0 500 -2 500 -15z"/>
</g>
</svg>
