<?xml version="1.0" standalone="no"?>
<!DOCTYPE svg PUBLIC "-//W3C//DTD SVG 20010904//EN"
 "http://www.w3.org/TR/2001/REC-SVG-20010904/DTD/svg10.dtd">
<svg version="1.0" xmlns="http://www.w3.org/2000/svg"
 width="124.000000pt" height="124.000000pt" viewBox="0 0 124.000000 124.000000"
 preserveAspectRatio="xMidYMid meet">
<metadata>
Created by potrace 1.10, written by Peter Selinger 2001-2011
</metadata>
<g transform="translate(0.000000,124.000000) scale(0.050000,-0.050000)"
fill="#000000" stroke="none">
<path d="M546 1609 c-303 -151 -303 -587 0 -738 316 -158 649 86 604 443 -12
102 -11 107 42 127 73 27 176 -11 157 -59 -102 -259 108 -560 392 -562 433 -2
582 595 196 788 -167 83 -377 56 -482 -62 -34 -38 -41 -39 -126 -10 -82 26
-99 26 -174 -3 -82 -32 -84 -32 -134 16 -124 119 -310 143 -475 60z"/>
</g>
</svg>
