<?xml version="1.0" standalone="no"?>
<!DOCTYPE svg PUBLIC "-//W3C//DTD SVG 20010904//EN"
 "https://www.w3.org/TR/2001/REC-SVG-20010904/DTD/svg10.dtd">
<svg version="1.0" xmlns="https://www.w3.org/2000/svg"
 width="124.000000pt" height="120.000000pt" viewBox="0 0 124.000000 120.000000"
 preserveAspectRatio="xMidYMid meet">
<metadata>
Created by potrace 1.10, written by Peter Selinger 2001-2011
</metadata>
<g transform="translate(0.000000,120.000000) scale(0.100000,-0.100000)"
fill="#000000" stroke="none">
<path d="M444 1126 c-38 -17 -71 -57 -84 -104 -23 -84 40 -171 128 -180 96 -9
166 54 166 150 0 104 -115 177 -210 134z"/>
<path d="M912 981 c-34 -16 -47 -30 -64 -68 l-21 -47 21 -16 c26 -21 62 -80
62 -101 0 -34 76 -40 129 -11 66 35 90 125 51 189 -40 66 -108 86 -178 54z"/>
<path d="M210 842 c-19 -9 -45 -32 -57 -51 -58 -87 7 -211 110 -211 52 0 66 8
89 54 11 22 30 51 41 64 21 22 21 22 1 70 -15 38 -28 51 -64 70 -53 27 -74 27
-120 4z"/>
<path d="M685 842 c-41 -20 -62 -45 -76 -94 -6 -22 -4 -31 10 -40 23 -16 61
-78 61 -99 0 -20 20 -29 66 -29 104 0 169 118 114 207 -39 65 -108 86 -175 55z"/>
<path d="M415 820 c-3 -5 -1 -18 5 -29 5 -11 10 -29 10 -41 0 -17 4 -19 28
-13 15 5 48 7 73 6 45 -1 46 0 57 34 6 20 9 40 6 45 -7 11 -172 10 -179 -2z"/>
<path d="M443 690 c-64 -39 -85 -105 -55 -174 24 -53 67 -79 129 -79 101 0
162 104 116 200 -32 69 -123 94 -190 53z"/>
<path d="M917 703 c-4 -3 -7 -14 -7 -22 0 -9 -9 -33 -20 -54 -24 -43 -24 -47
-7 -47 24 0 90 -63 108 -104 10 -23 19 -63 19 -90 l0 -49 49 7 c27 3 72 13
100 22 l51 15 0 92 c-1 132 -28 186 -113 222 -36 15 -167 21 -180 8z"/>
<path d="M158 560 c-89 -27 -128 -96 -128 -228 l0 -91 41 -11 c38 -10 143 -30
162 -30 4 0 7 19 7 43 0 67 43 144 101 180 l48 30 -19 24 c-11 14 -22 40 -26
59 l-6 34 -77 -1 c-42 0 -88 -4 -103 -9z"/>
<path d="M688 564 c-5 -4 -8 -17 -8 -28 0 -12 -9 -36 -20 -54 -23 -38 -24 -42
-7 -42 24 0 90 -63 108 -104 10 -23 19 -63 19 -90 l0 -49 53 7 c28 4 73 14
100 22 l47 16 0 91 c0 114 -20 163 -80 203 -35 23 -55 28 -123 32 -45 2 -85 1
-89 -4z"/>
<path d="M372 403 c-71 -35 -106 -120 -100 -244 l3 -64 75 -18 c102 -24 256
-24 335 0 l60 19 3 69 c5 105 -5 151 -40 191 -49 56 -74 64 -195 64 -79 0
-117 -5 -141 -17z"/>
</g>
</svg>
