<?xml version="1.0" standalone="no"?>
<!DOCTYPE svg PUBLIC "-//W3C//DTD SVG 20010904//EN"
 "https://www.w3.org/TR/2001/REC-SVG-20010904/DTD/svg10.dtd">
<svg version="1.0" xmlns="https://www.w3.org/2000/svg"
 width="140.000000pt" height="140.000000pt" viewBox="0 0 140.000000 140.000000"
 preserveAspectRatio="xMidYMid meet">
<metadata>
Created by potrace 1.10, written by Peter Selinger 2001-2011
</metadata>
<g transform="translate(0.000000,140.000000) scale(0.100000,-0.100000)"
fill="#000000" stroke="none">
<path d="M959 1267 c-44 -30 -61 -63 -55 -111 7 -59 53 -101 110 -101 119 0
165 146 67 212 -43 29 -79 29 -122 0z"/>
<path d="M487 1144 c-107 -94 -121 -120 -90 -162 36 -48 71 -42 152 28 l71 61
50 -27 50 -27 -23 -26 c-13 -14 -54 -61 -91 -103 -41 -47 -76 -78 -88 -78 -27
0 -121 -46 -143 -70 -19 -20 -18 -22 23 -62 l41 -42 55 28 c156 79 337 -30
339 -203 0 -45 -6 -69 -27 -107 l-27 -48 45 -45 c44 -44 46 -45 61 -26 9 11
27 43 42 70 34 64 44 195 19 265 -8 24 -14 45 -13 46 1 1 21 4 45 7 41 5 42 5
42 -25 0 -16 -5 -84 -11 -150 -12 -134 -6 -163 36 -174 34 -9 72 3 84 25 8 15
41 346 41 413 0 10 -10 28 -21 39 -21 21 -27 21 -155 14 -74 -3 -134 -4 -134
0 0 3 32 42 70 86 61 69 70 84 70 118 0 24 -7 44 -17 53 -38 33 -355 208 -376
208 -14 0 -58 -32 -120 -86z"/>
<path d="M278 613 c-30 -60 -33 -76 -33 -153 0 -72 4 -94 28 -146 76 -165 262
-249 433 -195 38 11 80 30 94 40 l25 20 -44 45 -43 44 -42 -19 c-158 -71 -343
63 -324 235 3 24 12 58 21 75 15 31 15 32 -16 64 -63 65 -62 66 -99 -10z"/>
</g>
</svg>
