<?xml version="1.0" standalone="no"?>
<!DOCTYPE svg PUBLIC "-//W3C//DTD SVG 20010904//EN"
 "http://www.w3.org/TR/2001/REC-SVG-20010904/DTD/svg10.dtd">
<svg version="1.0" xmlns="http://www.w3.org/2000/svg"
 width="250.000000pt" height="250.000000pt" viewBox="0 0 250.000000 250.000000"
 preserveAspectRatio="xMidYMid meet">
<metadata>
Created by potrace 1.10, written by Peter Selinger 2001-2011
</metadata>
<g transform="translate(0.000000,250.000000) scale(0.100000,-0.100000)"
fill="#000000" stroke="none">
<path d="M1115 2136 c-204 -47 -361 -170 -450 -350 -109 -219 -96 -425 45
-713 98 -200 265 -433 463 -643 l76 -81 69 73 c390 413 613 835 588 1113 -20
218 -136 411 -311 517 -136 83 -335 117 -480 84z m269 -380 c105 -51 161 -144
161 -266 0 -123 -56 -214 -163 -267 -47 -23 -70 -28 -132 -28 -62 0 -85 5
-132 28 -160 79 -215 278 -118 430 80 126 246 170 384 103z"/>
</g>
</svg>
