<svg xmlns="http://www.w3.org/2000/svg" width="1200" height="1200" viewBox="0 0 1200 1200">
<path d="M 744.80,459.42 L 745.32,461.43 L 745.96,462.99 L 746.75,464.43 L 747.69,465.89 L 748.64,466.97 L 749.64,467.95 L 749.84,468.14 L 751.18,469.23 L 751.31,469.19" stroke="black" stroke-width="2" fill="none" stroke-linecap="round" stroke-linejoin="round"/>
<path d="M 746.05,449.39 L 745.77,449.48 L 745.55,449.57" stroke="black" stroke-width="2" fill="none" stroke-linecap="round" stroke-linejoin="round"/>
<path d="M 751.12,439.36 L 751.02,439.49 L 750.88,439.66 L 749.48,442.10 L 747.63,445.73 L 746.05,449.39 L 746.13,449.55" stroke="black" stroke-width="2" fill="none" stroke-linecap="round" stroke-linejoin="round"/>
<path d="M 762.64,423.11 L 763.06,423.68 L 763.29,424.00 L 763.89,424.56" stroke="black" stroke-width="2" fill="none" stroke-linecap="round" stroke-linejoin="round"/>
<path d="M 753.65,407.82 L 753.75,408.02 L 759.40,417.68" stroke="black" stroke-width="2" fill="none" stroke-linecap="round" stroke-linejoin="round"/>
<path d="M 752.55,406.01 L 752.61,406.11 L 752.74,406.31 L 753.28,407.17 L 753.32,407.25" stroke="black" stroke-width="2" fill="none" stroke-linecap="round" stroke-linejoin="round"/>
<path d="M 590.07,598.01 L 593.27,599.63 L 593.22,599.80" stroke="black" stroke-width="2" fill="none" stroke-linecap="round" stroke-linejoin="round"/>
<path d="M 589.72,597.84 L 589.76,597.86 L 590.07,598.01 L 589.98,598.22" stroke="black" stroke-width="2" fill="none" stroke-linecap="round" stroke-linejoin="round"/>
<path d="M 586.00,596.04 L 589.14,597.55 L 589.21,597.59" stroke="black" stroke-width="2" fill="none" stroke-linecap="round" stroke-linejoin="round"/>
<path d="M 581.91,594.00 L 585.39,595.72 L 585.54,595.79" stroke="black" stroke-width="2" fill="none" stroke-linecap="round" stroke-linejoin="round"/>
<path d="M 562.23,591.15 L 561.87,591.97 L 561.63,592.69 L 561.58,592.82 L 561.51,593.07 L 561.31,593.71 L 560.72,596.01" stroke="black" stroke-width="2" fill="none" stroke-linecap="round" stroke-linejoin="round"/>
<path d="M 384.21,636.87 L 384.05,637.04 L 383.61,637.47 L 382.17,638.93 L 381.09,639.73 L 379.84,640.98 L 379.16,641.34 L 372.82,647.76 L 372.73,648.69 L 372.33,649.11 L 370.57,650.94 L 369.21,652.39 L 368.82,653.20 L 368.77,653.26 L 368.62,653.42" stroke="black" stroke-width="2" fill="none" stroke-linecap="round" stroke-linejoin="round"/>
<path d="M 384.57,636.49 L 385.53,635.56 L 386.66,634.68" stroke="black" stroke-width="2" fill="none" stroke-linecap="round" stroke-linejoin="round"/>
<path d="M 402.01,645.89 L 391.89,636.02 L 388.95,635.02 L 389.21,634.74" stroke="black" stroke-width="2" fill="none" stroke-linecap="round" stroke-linejoin="round"/>
<path d="M 409.21,652.99 L 406.14,649.91 L 405.36,649.16 L 403.71,647.55 L 403.60,647.45" stroke="black" stroke-width="2" fill="none" stroke-linecap="round" stroke-linejoin="round"/>
<path d="M 401.96,668.33 L 406.36,672.62 L 407.27,673.50 L 413.99,680.03 L 416.32,682.29 L 416.45,682.29 L 416.58,682.15 L 416.66,681.01 L 417.20,673.94 L 418.15,661.74 L 417.67,661.26 L 412.65,656.28 L 411.70,655.35 L 411.54,655.38 L 410.62,655.52 L 410.45,655.55 L 410.22,656.00 L 409.85,656.53 L 409.69,656.56 L 408.82,657.94 L 408.74,658.06 L 408.74,658.23 L 407.41,660.30 L 411.25,662.84 L 411.02,664.10 L 410.64,665.11 L 410.04,664.91 L 410.58,663.27 L 410.51,663.12 L 407.06,660.84 L 403.90,665.44 L 402.53,667.51" stroke="black" stroke-width="2" fill="none" stroke-linecap="round" stroke-linejoin="round"/>
<path d="M 766.01,492.08 L 763.87,492.69 L 763.84,492.61" stroke="black" stroke-width="2" fill="none" stroke-linecap="round" stroke-linejoin="round"/>
<path d="M 751.92,495.30 L 750.50,495.87 L 748.40,496.72 L 746.89,497.32 L 746.97,497.54" stroke="black" stroke-width="2" fill="none" stroke-linecap="round" stroke-linejoin="round"/>
<path d="M 679.48,541.61 L 679.37,541.51 L 678.87,541.04 L 674.69,537.38 L 672.22,535.13 L 672.02,534.94 L 668.70,532.07 L 668.72,531.54" stroke="black" stroke-width="2" fill="none" stroke-linecap="round" stroke-linejoin="round"/>
<path d="M 666.48,531.13 L 664.19,530.65 L 662.16,530.23 L 661.18,529.98 L 654.79,528.52 L 654.61,528.48 L 651.06,527.74 L 648.86,527.22 L 648.08,527.05 L 646.36,526.68 L 645.45,526.47 L 642.69,525.82" stroke="black" stroke-width="2" fill="none" stroke-linecap="round" stroke-linejoin="round"/>
<path d="M 636.59,524.36 L 642.42,525.76" stroke="black" stroke-width="2" fill="none" stroke-linecap="round" stroke-linejoin="round"/>
<path d="M 629.69,521.69 L 629.53,521.97" stroke="black" stroke-width="2" fill="none" stroke-linecap="round" stroke-linejoin="round"/>
<path d="M 632.11,522.72 L 629.69,521.69 L 628.70,521.27 L 628.48,521.70" stroke="black" stroke-width="2" fill="none" stroke-linecap="round" stroke-linejoin="round"/>
<path d="M 622.61,519.55 L 623.90,519.97 L 624.21,520.08 L 625.13,520.40 L 626.12,520.74 L 626.39,520.83 L 626.83,520.99 L 627.24,520.66 L 627.38,520.72" stroke="black" stroke-width="2" fill="none" stroke-linecap="round" stroke-linejoin="round"/>
<path d="M 617.25,517.55 L 616.34,517.27 L 612.62,516.12 L 612.23,515.86" stroke="black" stroke-width="2" fill="none" stroke-linecap="round" stroke-linejoin="round"/>
<path d="M 768.08,490.86 L 768.09,490.83 L 768.10,490.79 L 768.10,490.76 L 768.08,490.64 L 768.08,490.60 L 768.04,490.45 L 767.72,489.18 L 767.71,489.14 L 767.68,489.08 L 767.64,489.01 L 767.56,488.91 L 767.45,488.82 L 767.20,488.67 L 767.03,488.70 L 764.83,487.37 L 764.49,487.16 L 764.35,487.07 L 764.33,486.90 L 763.80,486.43 L 761.56,484.43 L 761.48,484.36 L 761.41,484.32 L 761.32,484.28 L 761.29,484.47 L 761.27,484.61 L 761.43,484.63 L 761.78,484.96 L 761.92,485.08 L 762.07,485.20 L 762.67,485.75 L 762.71,485.78 L 763.26,486.27 L 763.38,486.38 L 763.52,486.51 L 764.01,486.95 L 764.27,487.18 L 764.56,487.36 L 765.09,487.69 L 765.67,488.05 L 765.72,488.08 L 766.19,488.36 L 766.66,488.65 L 767.08,488.91 L 767.12,488.93 L 767.50,489.17 L 767.56,489.21 L 767.66,489.55 L 767.77,489.99 L 767.80,489.99 L 767.83,490.13 L 767.97,490.79 L 768.00,490.81 L 768.08,490.86 Z" stroke="black" stroke-width="1" fill="#cccccc" fill-rule="evenodd"/>
<path d="M 767.12,487.81 L 766.84,487.87 L 766.38,487.59 L 766.05,487.39 L 765.73,487.20 L 765.36,486.98 L 765.32,486.95 L 765.04,486.78 L 764.75,486.60 L 764.61,486.48 L 764.38,486.28 L 764.26,486.17 L 764.03,485.96 L 763.42,485.43 L 762.96,485.02 L 762.33,484.46 L 762.42,484.37 L 762.34,484.30 L 761.91,483.91 L 761.82,484.01 L 761.37,483.60 L 760.97,483.25 L 760.72,483.03 L 760.30,482.66 L 760.33,482.53 L 760.29,482.49 L 760.17,482.41 L 760.14,482.46 L 760.12,482.50 L 760.12,482.55 L 760.13,482.63 L 760.15,482.69 L 760.21,482.76 L 760.43,482.95 L 761.76,484.14 L 764.02,486.16 L 764.53,486.61 L 764.74,486.76 L 765.12,486.99 L 766.93,488.10 L 767.00,488.13 L 767.06,488.15 L 767.13,488.15 L 767.19,488.14 L 767.25,488.12 L 767.29,488.10 L 767.32,488.07 L 767.26,488.03 L 767.12,487.81 Z" stroke="black" stroke-width="1" fill="#cccccc" fill-rule="evenodd"/>
<path d="M 759.50,482.04 L 759.65,481.86 L 759.76,481.70 L 759.65,481.62 L 760.16,480.75 L 760.22,480.63 L 760.37,480.36 L 760.53,480.09 L 760.58,479.99 L 760.85,479.52 L 761.01,479.25 L 761.20,478.91 L 761.59,478.23 L 761.80,477.86 L 761.94,477.61 L 762.20,477.15 L 762.38,476.85 L 762.62,476.42 L 762.56,476.37 L 762.49,476.32 L 760.65,479.55 L 760.47,479.86 L 759.44,481.67 L 759.40,481.76 L 759.40,481.78 L 759.40,481.89 L 759.44,481.99 L 759.50,482.04 Z" stroke="black" stroke-width="1" fill="#cccccc" fill-rule="evenodd"/>
<path d="M 762.40,475.35 L 762.33,475.26 L 762.14,475.05 L 761.89,474.74 L 761.33,474.19 L 760.92,473.82 L 760.48,473.46 L 760.00,473.12 L 759.55,472.82 L 758.67,472.31 L 758.19,472.08 L 757.81,471.90 L 757.19,471.67 L 755.61,471.22 L 754.05,470.83 L 752.05,470.39 L 751.95,470.39 L 751.87,470.41 L 751.81,470.44 L 751.75,470.49 L 751.68,470.59 L 751.62,470.67 L 751.79,470.72 L 752.07,470.79 L 752.17,470.79 L 752.29,470.82 L 752.48,470.86 L 752.73,470.92 L 755.02,471.44 L 755.82,471.65 L 756.18,471.74 L 756.75,471.91 L 757.21,472.06 L 757.43,472.15 L 757.66,472.24 L 758.02,472.39 L 758.16,472.46 L 758.54,472.64 L 758.94,472.85 L 759.04,472.91 L 759.53,473.21 L 759.65,473.29 L 759.53,473.47 L 759.74,473.57 L 759.81,473.60 L 759.86,473.62 L 760.45,473.89 L 760.74,474.14 L 760.94,474.31 L 761.17,474.52 L 761.40,474.75 L 761.83,475.21 L 761.96,475.36 L 762.00,475.89 L 762.04,476.00 L 762.08,476.10 L 762.22,476.09 L 762.41,475.75 L 762.44,475.70 L 762.46,475.63 L 762.47,475.57 L 762.47,475.52 L 762.46,475.47 L 762.43,475.39 L 762.40,475.35 Z" stroke="black" stroke-width="1" fill="#cccccc" fill-rule="evenodd"/>
<path d="M 749.47,468.15 L 749.78,467.78 L 748.93,466.94 L 747.94,465.80 L 747.19,464.72 L 746.23,462.97 L 745.57,461.36 L 745.24,460.14 L 745.06,459.40 L 744.95,458.71 L 744.91,458.35 L 744.86,458.01 L 744.80,457.21 L 744.75,456.62 L 744.82,454.87 L 745.04,453.41 L 745.15,452.96 L 745.22,452.62 L 745.37,452.04 L 745.39,451.91 L 745.33,451.73 L 745.30,451.67 L 745.24,451.58 L 745.16,451.51 L 745.07,451.44 L 744.94,451.40 L 744.98,451.61 L 744.61,451.92 L 744.83,452.16 L 744.64,452.98 L 744.60,453.18 L 744.54,453.42 L 744.39,454.23 L 744.31,454.94 L 744.25,455.84 L 744.27,456.59 L 744.32,457.58 L 744.36,458.05 L 744.41,458.54 L 744.51,459.10 L 744.53,459.27 L 744.56,459.43 L 744.59,459.60 L 744.69,460.04 L 744.81,460.56 L 744.91,460.87 L 745.10,461.50 L 745.29,462.00 L 745.48,462.50 L 745.76,463.11 L 745.88,463.39 L 746.13,463.86 L 746.38,464.32 L 746.53,464.61 L 746.59,464.70 L 746.71,464.89 L 746.77,464.97 L 746.90,465.16 L 747.27,465.70 L 747.39,465.86 L 747.53,466.05 L 747.66,466.22 L 747.90,466.51 L 748.44,467.12 L 748.68,467.39 L 749.10,467.79 L 749.47,468.15 Z" stroke="black" stroke-width="1" fill="#cccccc" fill-rule="evenodd"/>
<path d="M 751.61,438.02 L 751.62,438.36 L 751.59,438.42 L 751.75,438.41 L 751.91,438.35 L 752.03,438.27 L 752.18,438.09 L 753.09,436.69 L 754.17,435.09 L 755.35,433.51 L 756.20,432.46 L 756.34,432.48 L 756.57,432.19 L 756.65,432.09 L 756.68,432.02 L 756.68,431.95 L 756.66,431.88 L 756.61,431.82 L 756.55,431.76 L 756.46,431.66 L 756.40,431.62 L 756.32,431.60 L 756.25,431.60 L 756.16,431.62 L 755.63,431.76 L 755.60,431.89 L 755.58,431.98 L 755.53,432.18 L 755.56,432.20 L 755.59,432.25 L 755.61,432.30 L 755.61,432.38 L 755.59,432.44 L 755.01,433.16 L 754.58,433.71 L 754.31,434.09 L 753.86,434.71 L 753.80,434.79 L 753.65,434.99 L 753.47,435.23 L 753.40,435.34 L 752.90,436.07 L 752.38,436.82 L 752.33,436.90 L 751.61,438.02 Z" stroke="black" stroke-width="1" fill="#cccccc" fill-rule="evenodd"/>
<path d="M 756.91,430.73 L 756.80,430.86 L 756.58,431.19 L 756.57,431.28 L 756.81,431.48 L 756.91,431.57 L 757.01,431.57 L 757.12,431.54 L 757.78,430.72 L 757.76,430.59 L 758.05,430.26 L 758.16,430.06 L 758.22,429.88 L 758.23,429.79 L 758.23,429.55 L 758.21,429.42 L 758.17,429.31 L 758.08,429.33 L 758.02,429.35 L 757.99,429.55 L 757.79,429.80 L 757.36,430.31 L 757.24,430.45 L 757.17,430.54 L 757.11,430.61 L 757.07,430.64 L 757.02,430.68 L 756.91,430.73 Z" stroke="black" stroke-width="1" fill="#cccccc" fill-rule="evenodd"/>
<path d="M 758.54,428.64 L 758.49,428.68 L 758.43,428.74 L 758.47,428.82 L 758.55,428.90 L 758.67,428.97 L 758.72,428.99 L 758.80,429.01 L 758.95,429.01 L 759.10,428.95 L 759.19,428.89 L 759.27,428.80 L 760.03,427.89 L 760.81,426.96 L 761.38,426.28 L 761.76,425.84 L 761.56,425.75 L 761.46,425.70 L 760.90,426.35 L 760.74,426.25 L 760.48,426.56 L 760.07,427.05 L 759.66,427.55 L 759.41,427.85 L 759.24,428.06 L 759.16,428.15 L 759.32,428.29 L 758.90,428.80 L 758.74,428.66 L 758.54,428.64 Z" stroke="black" stroke-width="1" fill="#cccccc" fill-rule="evenodd"/>
<path d="M 761.21,424.01 L 761.06,423.97 L 761.14,424.18 L 760.90,424.28 L 761.01,424.71 L 761.07,424.97 L 761.16,425.32 L 761.19,425.42 L 761.37,425.37 L 761.46,425.70 L 761.56,425.75 L 761.76,425.84 L 761.89,425.62 L 761.99,425.35 L 762.01,425.10 L 761.96,424.79 L 761.85,424.56 L 761.68,424.32 L 761.60,424.24 L 761.48,424.15 L 761.43,424.11 L 761.31,424.05 L 761.21,424.01 Z" stroke="black" stroke-width="1" fill="#cccccc" fill-rule="evenodd"/>
<path d="M 761.86,422.28 L 762.09,422.17 L 762.26,422.05 L 762.02,421.62 L 762.04,421.61 L 761.46,420.64 L 761.44,420.65 L 761.17,420.20 L 761.31,420.13 L 761.45,420.07 L 761.41,419.98 L 761.22,419.59 L 761.05,419.24 L 761.04,419.20 L 760.88,419.28 L 760.79,419.08 L 760.63,418.77 L 760.59,418.79 L 760.52,418.83 L 760.42,418.62 L 760.17,418.12 L 760.12,418.02 L 760.06,417.92 L 759.75,418.06 L 759.67,418.16 L 759.63,418.21 L 759.60,418.30 L 759.58,418.39 L 759.60,418.48 L 760.16,419.41 L 761.86,422.28 Z" stroke="black" stroke-width="1" fill="#cccccc" fill-rule="evenodd"/>
<path d="M 581.50,593.54 L 581.42,593.43 L 581.29,593.42 L 581.07,593.49 L 580.65,593.28 L 579.79,592.85 L 579.36,592.65 L 578.60,592.27 L 578.29,592.12 L 578.14,591.61 L 578.14,591.61 L 577.72,591.90 L 577.55,592.02 L 577.56,592.04 L 577.58,592.08 L 577.60,592.11 L 577.61,592.13 L 577.63,592.15 L 577.66,592.18 L 577.69,592.19 L 577.95,592.32 L 581.16,593.90 L 581.18,593.91 L 581.20,593.91 L 581.21,593.91 L 581.23,593.91 L 581.25,593.91 L 581.28,593.90 L 581.30,593.88 L 581.31,593.87 L 581.40,593.72 L 581.50,593.54 Z" stroke="black" stroke-width="1" fill="#cccccc" fill-rule="evenodd"/>
<path d="M 574.93,590.19 L 574.83,590.12 L 574.67,589.99 L 574.54,590.35 L 574.53,590.41 L 574.52,590.47 L 574.52,590.53 L 574.55,590.59 L 574.57,590.62 L 574.63,590.66 L 574.89,590.79 L 576.49,591.58 L 576.74,591.71 L 576.87,591.72 L 576.98,591.70 L 577.05,591.65 L 577.07,591.61 L 577.08,591.59 L 577.25,591.28 L 577.19,591.13 L 577.11,591.09 L 576.94,591.01 L 576.44,591.17 L 576.09,591.01 L 576.00,590.96 L 575.75,590.84 L 575.50,590.72 L 575.27,590.61 L 575.07,590.51 L 574.93,590.19 Z" stroke="black" stroke-width="1" fill="#cccccc" fill-rule="evenodd"/>
<path d="M 574.40,590.03 L 574.30,589.89 L 574.24,589.85 L 574.16,589.80 L 573.84,589.91 L 573.42,589.70 L 573.05,589.52 L 572.46,589.23 L 572.06,589.03 L 571.67,588.84 L 571.38,588.70 L 570.63,588.32 L 569.92,587.98 L 569.69,587.49 L 569.57,587.50 L 569.33,587.54 L 569.28,587.73 L 569.27,587.77 L 569.27,587.84 L 569.28,587.90 L 569.30,587.95 L 569.31,587.97 L 569.33,588.01 L 569.35,588.03 L 569.38,588.07 L 569.43,588.10 L 569.51,588.15 L 569.87,588.33 L 573.06,589.90 L 573.98,590.35 L 574.01,590.37 L 574.07,590.37 L 574.11,590.38 L 574.16,590.37 L 574.21,590.35 L 574.25,590.32 L 574.29,590.29 L 574.32,590.26 L 574.34,590.21 L 574.40,590.03 Z" stroke="black" stroke-width="1" fill="#cccccc" fill-rule="evenodd"/>
<path d="M 568.84,587.15 L 568.52,587.30 L 567.87,586.98 L 566.38,586.25 L 565.96,586.03 L 565.53,585.82 L 564.83,585.48 L 564.46,585.30 L 564.09,585.11 L 564.01,584.92 L 563.90,584.87 L 563.84,585.06 L 563.83,585.10 L 563.81,585.19 L 563.81,585.23 L 563.82,585.28 L 563.83,585.31 L 563.85,585.35 L 563.87,585.37 L 563.90,585.39 L 563.95,585.42 L 567.57,587.21 L 568.52,587.67 L 568.59,587.70 L 568.64,587.72 L 568.70,587.72 L 568.75,587.72 L 568.79,587.72 L 568.84,587.71 L 568.89,587.69 L 568.92,587.67 L 568.96,587.65 L 569.00,587.62 L 569.04,587.57 L 569.07,587.52 L 569.09,587.48 L 569.10,587.43 L 569.01,587.32 L 568.93,587.24 L 568.84,587.15 Z" stroke="black" stroke-width="1" fill="#cccccc" fill-rule="evenodd"/>
<path d="M 562.44,585.57 L 562.37,585.73 L 562.32,585.87 L 563.42,586.42 L 564.21,586.81 L 564.50,586.95 L 564.82,587.11 L 564.93,587.16 L 565.44,587.41 L 565.91,587.65 L 566.40,587.88 L 566.36,588.42 L 565.64,588.66 L 565.16,588.81 L 565.20,588.89 L 565.22,588.96 L 566.79,588.46 L 566.85,588.44 L 567.17,588.33 L 567.32,588.26 L 567.33,588.16 L 567.32,588.10 L 567.29,588.01 L 567.21,587.95 L 567.16,587.91 L 566.83,587.73 L 566.78,587.70 L 563.55,586.12 L 562.44,585.57 Z" stroke="black" stroke-width="1" fill="#cccccc" fill-rule="evenodd"/>
<path d="M 565.22,588.96 L 565.20,588.89 L 565.16,588.81 L 564.93,588.89 L 564.70,588.96 L 564.70,588.96 L 564.70,588.95 L 564.68,588.95 L 564.44,589.03 L 564.22,589.10 L 563.92,589.19 L 563.54,589.31 L 563.57,589.40 L 563.51,589.45 L 563.56,589.46 L 563.61,589.47 L 563.65,589.45 L 565.09,589.00 L 565.22,588.96 Z" stroke="black" stroke-width="1" fill="#cccccc" fill-rule="evenodd"/>
<path d="M 562.88,590.24 L 562.53,590.95 L 562.05,591.91 L 562.02,592.00 L 562.02,592.02 L 562.02,592.03 L 562.03,592.05 L 562.04,592.06 L 562.06,592.08 L 562.08,592.09 L 562.09,592.10 L 562.14,592.00 L 562.21,591.86 L 562.74,590.78 L 562.95,590.36 L 562.97,590.32 L 562.99,590.29 L 563.02,590.26 L 563.04,590.23 L 563.07,590.22 L 563.12,590.20 L 563.26,590.15 L 563.72,590.01 L 563.75,589.96 L 563.71,589.93 L 563.65,589.89 L 563.13,590.05 L 563.06,590.08 L 563.02,590.10 L 562.99,590.12 L 562.96,590.14 L 562.91,590.19 L 562.88,590.24 Z" stroke="black" stroke-width="1" fill="#cccccc" fill-rule="evenodd"/>
<path d="M 558.98,595.65 L 558.96,595.71 L 558.93,595.79 L 559.68,596.04 L 560.21,596.22 L 561.07,596.52 L 561.37,596.62 L 561.82,596.77 L 562.03,596.85 L 562.30,596.95 L 562.33,596.86 L 562.34,596.82 L 562.35,596.77 L 561.54,596.51 L 560.97,596.32 L 558.98,595.65 Z" stroke="black" stroke-width="1" fill="#cccccc" fill-rule="evenodd"/>
<path d="M 558.93,595.79 L 558.96,595.71 L 558.98,595.65 L 558.89,595.62 L 558.88,595.62 L 558.85,595.61 L 558.80,595.61 L 558.74,595.62 L 558.69,595.63 L 558.66,595.65 L 558.63,595.66 L 558.59,595.69 L 558.55,595.73 L 558.53,595.77 L 558.51,595.79 L 558.48,595.89 L 557.84,597.73 L 557.67,598.19 L 557.96,598.28 L 558.08,598.31 L 558.08,598.31 L 558.48,597.12 L 558.93,595.79 Z" stroke="black" stroke-width="1" fill="#cccccc" fill-rule="evenodd"/>
<path d="M 768.08,490.86 L 768.09,490.83 L 768.10,490.79 L 768.10,490.76 L 768.08,490.64 L 768.08,490.60 L 768.04,490.45 L 767.72,489.18 L 767.71,489.14 L 767.68,489.08 L 767.64,489.01 L 767.56,488.91 L 767.45,488.82 L 767.20,488.67 L 767.03,488.70 L 764.83,487.37 L 764.49,487.16 L 764.35,487.07 L 764.33,486.90 L 763.80,486.43 L 761.56,484.43 L 761.48,484.36 L 761.41,484.32 L 761.32,484.28 L 761.29,484.47 L 761.27,484.61 L 761.43,484.63 L 761.78,484.96 L 761.92,485.08 L 762.07,485.20 L 762.67,485.75 L 762.71,485.78 L 763.26,486.27 L 763.38,486.38 L 763.52,486.51 L 764.01,486.95 L 764.27,487.18 L 764.56,487.36 L 765.09,487.69 L 765.67,488.05 L 765.72,488.08 L 766.19,488.36 L 766.66,488.65 L 767.08,488.91 L 767.12,488.93 L 767.50,489.17 L 767.56,489.21 L 767.66,489.55 L 767.77,489.99 L 767.80,489.99 L 767.83,490.13 L 767.97,490.79 L 768.00,490.81 L 768.08,490.86 Z" stroke="black" stroke-width="1" fill="#cccccc" fill-rule="evenodd"/>
<path d="M 768.56,490.74 L 768.66,490.76 L 768.78,490.76 L 768.99,490.72 L 769.43,490.63 L 774.81,489.58 L 775.15,489.50 L 777.85,488.68 L 777.98,488.62 L 777.85,488.59 L 777.73,488.55 L 776.65,488.87 L 775.99,489.07 L 775.70,489.16 L 775.32,489.27 L 775.24,489.30 L 774.80,489.42 L 774.41,489.49 L 774.13,489.54 L 773.87,489.59 L 773.53,489.65 L 773.19,489.71 L 772.83,489.77 L 772.45,489.84 L 772.10,489.90 L 771.62,489.99 L 771.00,490.12 L 770.31,490.26 L 769.68,490.39 L 768.92,490.54 L 768.76,490.58 L 768.68,490.53 L 768.62,490.62 L 768.56,490.74 Z" stroke="black" stroke-width="1" fill="#cccccc" fill-rule="evenodd"/>
<path d="M 769.59,491.41 L 769.61,491.32 L 769.64,491.31 L 769.62,491.25 L 770.25,491.13 L 770.27,491.19 L 770.28,491.19 L 770.66,491.12 L 771.02,491.05 L 771.53,490.95 L 771.64,490.93 L 772.15,490.83 L 772.18,490.83 L 772.28,490.81 L 772.76,490.72 L 772.91,490.69 L 773.01,490.67 L 773.51,490.57 L 773.67,490.55 L 774.35,490.41 L 774.47,490.39 L 775.18,490.26 L 775.34,490.22 L 776.02,490.10 L 776.15,490.05 L 776.84,489.83 L 777.15,489.72 L 777.69,489.55 L 777.86,489.88 L 778.05,489.77 L 778.71,489.46 L 778.92,489.52 L 778.98,489.43 L 779.00,489.39 L 779.06,489.36 L 778.76,489.00 L 779.19,488.69 L 779.56,488.42 L 779.74,488.37 L 779.99,488.39 L 779.91,488.29 L 779.75,488.09 L 779.67,488.13 L 779.58,488.20 L 779.25,488.44 L 779.07,488.56 L 778.74,488.80 L 778.09,489.17 L 777.52,489.41 L 776.30,489.81 L 775.64,489.97 L 769.58,491.15 L 769.53,491.17 L 769.49,491.19 L 769.46,491.22 L 769.40,491.28 L 769.34,491.41 L 769.52,491.38 L 769.59,491.41 Z" stroke="black" stroke-width="1" fill="#cccccc" fill-rule="evenodd"/>
<path d="M 766.91,492.02 L 766.96,491.93 L 767.51,491.80 L 768.04,491.67 L 768.10,491.66 L 768.68,491.51 L 768.74,491.42 L 768.79,491.35 L 768.75,491.34 L 768.71,491.33 L 768.66,491.34 L 768.15,491.46 L 766.83,491.78 L 766.72,491.82 L 766.66,491.85 L 766.62,491.89 L 766.82,491.97 L 766.91,492.02 Z" stroke="black" stroke-width="1" fill="#cccccc" fill-rule="evenodd"/>
<path d="M 767.97,490.79 L 767.88,490.81 L 766.94,491.02 L 766.36,491.16 L 765.90,491.26 L 765.18,491.42 L 765.09,491.44 L 764.57,491.59 L 764.53,491.61 L 764.25,491.69 L 764.17,491.72 L 763.27,491.99 L 762.88,492.11 L 762.49,492.24 L 762.14,492.35 L 762.07,492.37 L 761.96,492.40 L 761.62,492.51 L 761.11,492.67 L 760.83,492.76 L 760.24,492.95 L 759.63,493.14 L 759.05,493.33 L 758.40,493.54 L 758.01,493.66 L 757.57,493.81 L 757.29,493.89 L 757.14,493.94 L 756.46,494.16 L 755.87,494.35 L 755.10,494.60 L 755.03,494.62 L 754.70,494.73 L 754.37,494.84 L 753.69,495.07 L 753.33,495.19 L 753.29,495.29 L 753.29,495.37 L 753.35,495.36 L 753.41,495.34 L 759.05,493.51 L 762.28,492.50 L 763.35,492.16 L 763.66,492.07 L 764.94,491.67 L 765.46,491.53 L 765.70,491.46 L 765.84,491.43 L 767.99,490.93 L 768.00,490.92 L 768.01,490.92 L 768.04,490.91 L 768.05,490.89 L 768.07,490.88 L 768.08,490.86 L 768.00,490.81 L 767.97,490.79 Z" stroke="black" stroke-width="1" fill="#cccccc" fill-rule="evenodd"/>
<path d="M 738.93,500.66 L 739.02,500.79 L 739.05,500.81 L 739.08,500.83 L 739.12,500.84 L 739.15,500.85 L 739.17,500.84 L 739.20,500.84 L 739.22,500.82 L 739.55,500.63 L 739.73,500.51 L 739.73,500.37 L 739.98,500.21 L 741.54,499.57 L 741.81,499.46 L 742.04,499.37 L 742.19,499.44 L 742.98,499.11 L 743.01,498.96 L 743.09,498.93 L 743.61,498.71 L 745.62,497.89 L 745.68,497.85 L 745.74,497.81 L 745.77,497.77 L 745.81,497.73 L 745.82,497.71 L 745.84,497.68 L 745.87,497.63 L 745.88,497.59 L 745.43,497.70 L 744.94,497.73 L 744.14,498.06 L 742.94,498.55 L 742.41,498.77 L 742.37,498.76 L 742.00,498.67 L 741.92,498.96 L 741.65,499.07 L 741.36,499.20 L 740.19,499.69 L 740.04,499.63 L 739.92,499.63 L 739.76,499.65 L 739.62,499.72 L 739.58,499.95 L 739.36,500.34 L 738.93,500.66 Z" stroke="black" stroke-width="1" fill="#cccccc" fill-rule="evenodd"/>
<path d="M 662.10,530.53 L 666.33,531.48 L 666.48,531.13 L 666.58,530.93 L 666.50,530.88 L 665.97,530.76 L 665.47,530.65 L 665.37,530.63 L 665.32,530.84 L 664.91,530.75 L 664.96,530.53 L 664.87,530.51 L 663.43,530.19 L 663.37,530.45 L 662.18,530.18 L 662.16,530.23 L 662.10,530.53 Z" stroke="black" stroke-width="1" fill="#cccccc" fill-rule="evenodd"/>
<path d="M 609.67,513.88 L 609.63,514.42 L 609.52,514.73 L 609.37,515.20 L 609.35,515.26 L 609.36,515.32 L 609.38,515.38 L 609.42,515.43 L 609.47,515.46 L 610.24,515.72 L 610.89,515.93 L 611.22,516.03 L 611.35,516.03 L 611.47,516.00 L 611.60,515.95 L 611.79,515.72 L 611.93,515.53 L 611.87,515.43 L 612.66,514.42 L 614.24,512.46 L 614.55,512.10 L 614.48,512.05 L 614.43,512.00 L 614.34,512.02 L 614.25,511.97 L 613.91,511.83 L 612.34,513.81 L 611.84,514.44 L 611.78,514.51 L 611.72,514.58 L 611.56,514.71 L 611.39,514.80 L 611.20,514.85 L 611.06,514.87 L 610.96,514.86 L 610.86,514.85 L 610.77,514.83 L 610.58,514.76 L 610.35,514.59 L 610.22,514.43 L 610.13,514.27 L 610.08,514.09 L 610.06,513.90 L 609.86,513.89 L 609.67,513.88 Z" stroke="black" stroke-width="1" fill="#cccccc" fill-rule="evenodd"/>
<path d="M 605.29,510.53 L 605.41,510.63 L 605.35,510.97 L 605.27,511.55 L 605.08,512.71 L 604.91,512.68 L 604.85,513.06 L 604.75,513.54 L 604.75,513.64 L 604.77,513.74 L 604.80,513.83 L 604.88,513.92 L 604.96,513.99 L 605.07,514.04 L 605.53,514.19 L 607.02,514.67 L 608.77,515.24 L 608.84,515.25 L 608.89,515.24 L 608.96,515.20 L 609.01,515.14 L 609.13,514.76 L 609.16,514.66 L 609.26,514.35 L 609.30,513.84 L 609.20,513.83 L 609.10,513.82 L 609.01,514.26 L 608.90,514.31 L 608.52,514.13 L 608.68,513.81 L 608.48,513.72 L 608.32,514.04 L 607.62,513.69 L 607.78,513.37 L 607.68,513.32 L 607.56,513.25 L 607.44,513.21 L 607.00,513.00 L 606.58,512.79 L 605.84,512.43 L 605.76,512.39 L 605.74,512.37 L 605.63,512.43 L 605.45,512.09 L 605.57,512.02 L 605.51,511.92 L 605.60,511.43 L 605.76,510.56 L 605.77,510.53 L 605.57,510.50 L 605.29,510.53 Z" stroke="black" stroke-width="1" fill="#cccccc" fill-rule="evenodd"/>
</svg>
